<?xml version="1.0" encoding="UTF-8" standalone="no"?>
<!-- Created with Inkscape (http://www.inkscape.org/) -->

<svg
   xmlns:dc="http://purl.org/dc/elements/1.1/"
   xmlns:cc="http://creativecommons.org/ns#"
   xmlns:rdf="http://www.w3.org/1999/02/22-rdf-syntax-ns#"
   xmlns:svg="http://www.w3.org/2000/svg"
   xmlns="http://www.w3.org/2000/svg"
   xmlns:sodipodi="http://sodipodi.sourceforge.net/DTD/sodipodi-0.dtd"
   xmlns:inkscape="http://www.inkscape.org/namespaces/inkscape"
   width="744.09448819"
   height="1052.3622047"
   id="svg2"
   version="1.1"
   inkscape:version="0.48.4 r9939"
   sodipodi:docname="drawing.svg">
  <defs
     id="defs4" />
  <sodipodi:namedview
     id="base"
     pagecolor="#ffffff"
     bordercolor="#666666"
     borderopacity="1.0"
     inkscape:pageopacity="0.0"
     inkscape:pageshadow="2"
     inkscape:zoom="0.5"
     inkscape:cx="277.5"
     inkscape:cy="238.92579"
     inkscape:document-units="px"
     inkscape:current-layer="layer1"
     showgrid="false"
     inkscape:window-width="1215"
     inkscape:window-height="1000"
     inkscape:window-x="65"
     inkscape:window-y="24"
     inkscape:window-maximized="1">
    <inkscape:grid
       type="xygrid"
       id="grid2985" />
  </sodipodi:namedview>
  <metadata
     id="metadata7">
    <rdf:RDF>
      <cc:Work
         rdf:about="">
        <dc:format>image/svg+xml</dc:format>
        <dc:type
           rdf:resource="http://purl.org/dc/dcmitype/StillImage" />
        <dc:title />
      </cc:Work>
    </rdf:RDF>
  </metadata>
  <g
     inkscape:label="Layer 1"
     inkscape:groupmode="layer"
     id="layer1">
    <path
       style="fill:none;stroke:#000000;stroke-width:2.14100957;stroke-linecap:butt;stroke-linejoin:miter;stroke-miterlimit:4;stroke-opacity:1;stroke-dasharray:none"
       d="m 406.54599,816.69301 c 32.06361,-31.80265 40.28505,-25.1074 40.28505,-25.1074 l -2.46644,15.06441 -1.64429,3.34767"
       id="path3997"
       inkscape:connector-curvature="0"
       sodipodi:nodetypes="cccc" />
    <path
       style="fill:#282828;fill-opacity:1;stroke:#000000;stroke-width:1px;stroke-linecap:butt;stroke-linejoin:miter;stroke-opacity:1"
       d="m 240.31957,271.79861 c -4.4165,10.48919 1.93221,11.31728 5.52062,0.82809 3.58841,-10.48919 3.86444,-11.59332 3.86444,-11.59332 0,0 0.99044,-0.70114 5.52063,-2.76031 6.07269,-2.76031 8.00491,-0.27603 8.00491,-0.27603 0,0 9.10903,6.62475 4.96856,14.0776 -4.14047,7.45284 -4.4165,14.07759 -3.03634,16.83791 1.38015,2.76031 5.52062,-9.6611 5.52062,-9.6611 0,0 1.93222,1.10413 2.76032,-9.6611 0.82809,-10.76522 -11.86935,-17.38997 -11.86935,-17.38997 0,0 -11.04125,0.82809 -15.18172,6.90078 -4.14047,6.07269 -6.07269,12.69745 -6.07269,12.69745 z"
       id="path3839"
       inkscape:connector-curvature="0"
       sodipodi:nodetypes="cscscsscscsc" />
    <g
       id="g3803"
       transform="translate(-147,698)">
      <rect
         y="432.36218"
         x="200"
         height="300"
         width="300"
         id="rect2987"
         style="fill:#ffffff;fill-opacity:1;stroke:#000000;stroke-width:5;stroke-linecap:round;stroke-linejoin:round;stroke-miterlimit:4;stroke-opacity:1;stroke-dasharray:none;stroke-dashoffset:0" />
      <rect
         y="457.36218"
         x="225"
         height="250"
         width="250"
         id="rect3779"
         style="fill:#ffffff;fill-opacity:1;stroke:#000000;stroke-width:5;stroke-linecap:round;stroke-linejoin:round;stroke-miterlimit:4;stroke-opacity:1;stroke-dasharray:none;stroke-dashoffset:0" />
    </g>
    <path
       style="fill:none;stroke:#000000;stroke-width:3;stroke-linecap:butt;stroke-linejoin:miter;stroke-miterlimit:4;stroke-opacity:1;stroke-dasharray:none"
       d="m 235.31966,201.83089 -19.80614,-8.55662 8.80614,-11.44338 -23.50288,-14.82341 17.08254,-9.3954 -15.57966,-15.78119 16.42462,-3.20308 -7.42462,-17.79692 25.31862,4.06705 -0.31862,-24.06705 13.97339,13.43757 9.33408,-20.682167 16.49253,17.844597 9.2,-15.599997 9.95861,17.464537 14.3852,-18.985167 2.82843,21.096587 18.68468,-17.173967 -3.13278,20.908357 22.60746,-9.56716 -7.62969,21.12193 21.36587,-7.23597 -7.15478,20.87154 24.1875,5.08168 -10.32475,31.83984 28.22425,25.57779 -28,8 11,46 -34,-12 -14,41 -19,-30 -21,31 9,-30 c 0,0 5,7 7,-33 2,-40 -16,-35 -16,-35 0,0 -2,-12 -25,-6 -23,6 -34,15 -34,15 z"
       id="path3781"
       inkscape:connector-curvature="0"
       sodipodi:nodetypes="cccccccccccccccccccccccccccccccccscsc" />
    <path
       style="fill:none;stroke:#000000;stroke-width:2;stroke-linecap:butt;stroke-linejoin:miter;stroke-miterlimit:4;stroke-opacity:1;stroke-dasharray:none"
       d="m 233.31966,200.83089 c -11,35 4,27 4,27 0,0 11,-9 -5,8 -16,17 -26,15 -26,15 l 7,17 8,-8 -3,-12"
       id="path3783"
       inkscape:connector-curvature="0"
       sodipodi:nodetypes="ccscccc" />
    <path
       style="fill:none;stroke:#000000;stroke-width:2;stroke-linecap:butt;stroke-linejoin:miter;stroke-miterlimit:4;stroke-opacity:1;stroke-dasharray:none"
       d="m 213.31966,267.83089 25,11 c 0,0 0,3 4,-12 4,-15 20,-15 20,-15 0,0 20,13 8,28 -12,15 9,15 9,15 l 20,-19"
       id="path3785"
       inkscape:connector-curvature="0"
       sodipodi:nodetypes="ccscscc" />
    <path
       style="fill:none;stroke:#000000;stroke-width:2;stroke-linecap:butt;stroke-linejoin:miter;stroke-miterlimit:4;stroke-opacity:1;stroke-dasharray:none"
       d="m 245.31966,229.83089 c 10,-11 14,-24 14,-24"
       id="path3787"
       inkscape:connector-curvature="0"
       sodipodi:nodetypes="cc" />
    <path
       sodipodi:type="arc"
       style="fill:#ffffff;fill-opacity:1;stroke:#000000;stroke-width:2;stroke-linecap:round;stroke-linejoin:round;stroke-miterlimit:4;stroke-opacity:1;stroke-dasharray:none;stroke-dashoffset:0"
       id="path3793"
       sodipodi:cx="111.5"
       sodipodi:cy="330.86218"
       sodipodi:rx="6.5"
       sodipodi:ry="6.5"
       d="m 118,330.86218 a 6.5,6.5 0 1 1 -13,0 6.5,6.5 0 1 1 13,0 z"
       transform="translate(148.31966,-106.53129)" />
    <g
       id="g3833">
      <rect
         y="1134.3622"
         x="378"
         height="300"
         width="300"
         id="rect2987-8"
         style="fill:#282828;fill-opacity:1;stroke:#000000;stroke-width:5;stroke-linecap:round;stroke-linejoin:round;stroke-miterlimit:4;stroke-opacity:1;stroke-dasharray:none;stroke-dashoffset:0" />
      <rect
         y="1159.3622"
         x="403"
         height="250"
         width="250"
         id="rect3779-6"
         style="fill:#ffffff;fill-opacity:1;stroke:#000000;stroke-width:5;stroke-linecap:round;stroke-linejoin:round;stroke-miterlimit:4;stroke-opacity:1;stroke-dasharray:none;stroke-dashoffset:0" />
    </g>
    <path
       style="fill:#ffffff;fill-opacity:1;stroke:#000000;stroke-width:1px;stroke-linecap:butt;stroke-linejoin:miter;stroke-opacity:1"
       d="m 238.11132,277.8713 7.72887,1.93221 -5.24459,-5.24459 6.34872,0 -5.01813,-3.67759 5.29416,-0.73891 -3.82058,-2.81836 5.47677,0.058 -3.66488,-4.68405 6.14916,1.37168 -2.76031,-6.62475 5.52062,1.93222 -2.48428,-4.14047 -5.24459,3.86443 -3.86444,6.62476 z"
       id="path3841"
       inkscape:connector-curvature="0"
       sodipodi:nodetypes="cccccccccccccccc" />
    <path
       style="fill:#ffffff;fill-opacity:1;stroke:#000000;stroke-width:1px;stroke-linecap:butt;stroke-linejoin:miter;stroke-opacity:1"
       d="m 265.99048,286.98033 -4.4165,-4.69253 6.34872,1.10412 -4.69253,-6.90078 7.17681,2.48428 -4.96856,-6.90078 6.90078,3.5884 z"
       id="path3843"
       inkscape:connector-curvature="0" />
    <path
       style="fill:none;stroke:#000000;stroke-width:3;stroke-linecap:butt;stroke-linejoin:miter;stroke-miterlimit:4;stroke-opacity:1;stroke-dasharray:none"
       d="M 94.145943,811.76704 C -33.706569,637.42269 174.34433,590.93087 174.34433,590.93087 c 0,0 119.71643,6.97377 102.282,73.22462 -17.43443,66.25084 -24.40821,80.19839 -24.40821,80.19839 0,0 -18.59672,-16.27214 -37.19345,-30.21969 -18.59673,-13.94754 -30.21968,-55.79018 -30.21968,-55.79018"
       id="path3845"
       inkscape:connector-curvature="0" />
    <path
       style="fill:none;stroke:#000000;stroke-width:3;stroke-linecap:butt;stroke-linejoin:miter;stroke-miterlimit:4;stroke-opacity:1;stroke-dasharray:none"
       d="m 94.145943,808.28014 c -6.97378,18.5967 8.136057,11.6229 8.136057,11.6229 0,0 44.16723,-22.0836 41.84264,-25.5705 -2.32459,-3.4868 -32.54427,2.3246 -29.05738,-23.2459 3.48688,-25.57047 20.92131,-32.54424 29.05738,-48.81638 8.13607,-16.27214 10.46066,-31.38198 10.46066,-31.38198"
       id="path3849"
       inkscape:connector-curvature="0" />
    <path
       style="fill:none;stroke:#000000;stroke-width:3;stroke-linecap:butt;stroke-linejoin:miter;stroke-miterlimit:4;stroke-opacity:1;stroke-dasharray:none"
       d="m 133.66398,733.89322 c 72.06232,8.13607 66.25085,12.78523 66.25085,12.78523"
       id="path3851"
       inkscape:connector-curvature="0"
       sodipodi:nodetypes="cc" />
    <path
       sodipodi:type="arc"
       style="fill:#ffffff;fill-opacity:1;stroke:#000000;stroke-width:3;stroke-linecap:round;stroke-linejoin:round;stroke-miterlimit:4;stroke-opacity:1;stroke-dasharray:none;stroke-dashoffset:0"
       id="path3853"
       sodipodi:cx="215.60582"
       sodipodi:cy="463.65952"
       sodipodi:rx="7.5549207"
       sodipodi:ry="7.5549207"
       d="m 223.16074,463.65952 a 7.5549207,7.5549207 0 1 1 -15.10984,0 7.5549207,7.5549207 0 1 1 15.10984,0 z"
       transform="translate(-77.873798,190.61646)" />
    <path
       style="fill:none;stroke:#000000;stroke-width:1px;stroke-linecap:butt;stroke-linejoin:miter;stroke-opacity:1"
       d="m 175.50662,687.4014 c -3.48689,22.08361 -20.92132,46.49182 -20.92132,46.49182"
       id="path3855"
       inkscape:connector-curvature="0" />
    <path
       style="fill:none;stroke:#000000;stroke-width:1px;stroke-linecap:butt;stroke-linejoin:miter;stroke-opacity:1"
       d="m 190.61646,702.51124 c -20.92132,30.21968 -26.73279,33.70657 -26.73279,33.70657"
       id="path3857"
       inkscape:connector-curvature="0" />
    <path
       style="fill:none;stroke:#000000;stroke-width:1px;stroke-linecap:butt;stroke-linejoin:miter;stroke-opacity:1"
       d="M 51.141003,699.02435 C 73.224613,646.72106 113.90496,687.4014 113.90496,687.4014"
       id="path3859"
       inkscape:connector-curvature="0"
       sodipodi:nodetypes="cc" />
    <path
       style="fill:none;stroke:#000000;stroke-width:1px;stroke-linecap:butt;stroke-linejoin:miter;stroke-opacity:1"
       d="m 52.303303,705.39829 c 22.08361,-38.35574 54.627887,-6.97377 54.627887,-6.97377"
       id="path3859-8"
       inkscape:connector-curvature="0"
       sodipodi:nodetypes="cc" />
    <path
       style="fill:none;stroke:#000000;stroke-width:1px;stroke-linecap:butt;stroke-linejoin:miter;stroke-opacity:1"
       d="m 52.303303,719.34584 c 23.24591,-39.51804 45.32953,-11.62295 45.32953,-11.62295"
       id="path3859-5"
       inkscape:connector-curvature="0"
       sodipodi:nodetypes="cc" />
    <path
       style="fill:none;stroke:#000000;stroke-width:1px;stroke-linecap:butt;stroke-linejoin:miter;stroke-opacity:1"
       d="m 53.465593,684.47698 c 30.21968,-47.65411 65.088547,-9.29836 65.088547,-9.29836"
       id="path3859-6"
       inkscape:connector-curvature="0"
       sodipodi:nodetypes="cc" />
    <flowRoot
       xml:space="preserve"
       id="flowRoot3909"
       style="font-size:40px;font-style:normal;font-weight:normal;line-height:125%;letter-spacing:0px;word-spacing:0px;fill:#ffffff;fill-opacity:1;stroke:#000000;font-family:Sans;stroke-width:5;stroke-miterlimit:4;stroke-dasharray:none;stroke-opacity:1;stroke-linejoin:round"><flowRegion
         id="flowRegion3911"><rect
           id="rect3913"
           width="235.94598"
           height="211.53778"
           x="468.40509"
           y="482.8374"
           style="stroke-width:5;stroke-miterlimit:4;stroke-dasharray:none;stroke:#000000;stroke-opacity:1;fill:#ffffff;fill-opacity:1;stroke-linejoin:round" /></flowRegion><flowPara
         id="flowPara3915"
         style="font-size:72px;font-weight:bold;-inkscape-font-specification:Sans Bold;stroke-width:5;stroke-miterlimit:4;stroke-dasharray:none;stroke:#000000;stroke-opacity:1;fill:#ffffff;fill-opacity:1;stroke-linejoin:round">B</flowPara></flowRoot>    <flowRoot
       xml:space="preserve"
       id="flowRoot3944"
       style="font-size:40px;font-style:normal;font-weight:normal;line-height:125%;letter-spacing:0px;word-spacing:0px;fill:#ffffff;fill-opacity:1;stroke:#000000;stroke-width:5;stroke-linejoin:round;stroke-miterlimit:4;stroke-opacity:1;stroke-dasharray:none;font-family:Sans"
       transform="translate(283.6001,-251.05582)"><flowRegion
         id="flowRegion3946"><rect
           id="rect3948"
           width="172.01973"
           height="189.45416"
           x="218.51155"
           y="377.06851"
           style="fill:#ffffff;fill-opacity:1;stroke:#000000;stroke-width:5;stroke-linejoin:round;stroke-miterlimit:4;stroke-opacity:1;stroke-dasharray:none" /></flowRegion><flowPara
         id="flowPara3950"
         style="font-size:72px;font-weight:bold;fill:#ffffff;fill-opacity:1;stroke:#000000;stroke-width:5;stroke-linejoin:round;stroke-miterlimit:4;stroke-opacity:1;stroke-dasharray:none;-inkscape-font-specification:Sans Bold">K</flowPara></flowRoot>    <flowRoot
       xml:space="preserve"
       id="flowRoot3952"
       style="font-size:40px;font-style:normal;font-weight:normal;line-height:125%;letter-spacing:0px;word-spacing:0px;fill:#ffffff;fill-opacity:1;stroke:#000000;font-family:Sans;stroke-opacity:1;stroke-width:5;stroke-miterlimit:4;stroke-dasharray:none;stroke-linejoin:round"><flowRegion
         id="flowRegion3954"><rect
           id="rect3956"
           width="240.59517"
           height="127.8525"
           x="439.34769"
           y="635.09808"
           style="stroke:#000000;stroke-opacity:1;stroke-width:5;stroke-miterlimit:4;stroke-dasharray:none;stroke-linejoin:round;fill:#ffffff;fill-opacity:1" /></flowRegion><flowPara
         id="flowPara3958"
         style="font-size:72px;font-weight:bold;-inkscape-font-specification:Sans Bold;stroke:#000000;stroke-opacity:1;stroke-width:5;stroke-miterlimit:4;stroke-dasharray:none;stroke-linejoin:round;fill:#ffffff;fill-opacity:1">P</flowPara></flowRoot>    <flowRoot
       xml:space="preserve"
       id="flowRoot3960"
       style="font-size:40px;font-style:normal;font-weight:normal;line-height:125%;letter-spacing:0px;word-spacing:0px;fill:#ffffff;fill-opacity:1;stroke:#000000;font-family:Sans;stroke-opacity:1;stroke-width:5;stroke-miterlimit:4;stroke-dasharray:none;stroke-linejoin:round"><flowRegion
         id="flowRegion3962"><rect
           id="rect3964"
           width="189.45416"
           height="152.26071"
           x="476.54117"
           y="281.76025"
           style="stroke:#000000;stroke-opacity:1;stroke-width:5;stroke-miterlimit:4;stroke-dasharray:none;stroke-linejoin:round;fill:#ffffff;fill-opacity:1" /></flowRegion><flowPara
         id="flowPara3966"
         style="font-size:72px;font-weight:bold;-inkscape-font-specification:Sans Bold;stroke:#000000;stroke-opacity:1;stroke-width:5;stroke-miterlimit:4;stroke-dasharray:none;stroke-linejoin:round;fill:#ffffff;fill-opacity:1">R</flowPara></flowRoot>    <path
       style="fill:#ffffff;fill-opacity:1;stroke:#000000;stroke-width:2.14100957;stroke-linecap:butt;stroke-linejoin:miter;stroke-miterlimit:4;stroke-opacity:1;stroke-dasharray:none"
       d="m 457.5189,839.28967 c 0,0 18.08716,1.67383 27.9529,0.83691 9.86571,-0.83691 9.86571,-25.1074 9.86571,-25.1074 0,0 2.46643,-5.85841 -24.66431,-0.83691 -27.13074,5.02149 -21.85773,4.64918 -21.85773,4.64918 0,0 -19.70254,6.64839 -22.19787,-18.41208 -2.50836,-25.19126 -7.73946,-20.5505 -7.73946,-20.5505 l -6.57714,4.18457 c 0,0 9.04357,0 6.57714,31.80266 -2.46643,31.80265 -1.64428,5.85841 -1.64428,5.85841 0,0 -7.3993,0 -22.19788,-9.20607 -14.7986,-9.206 -5.75501,-15.90133 -5.75501,-15.90133 l -9.04359,12.55366 c 0,0 14.7986,-2.51075 19.73146,25.1074 -23.84217,12.55367 -18.08717,23.43357 -18.08717,23.43357 0,0 5.34757,2.08213 -5.7834,14.17746 -9.238,10.03834 -13.05308,13.34055 -13.05308,13.34055 -8.12822,8.47836 -2.74664,12.38977 -2.74664,12.38977 l 2.64533,4.00156"
       id="path3987"
       inkscape:connector-curvature="0"
       sodipodi:nodetypes="cscscsccscsccccsccc" />
    <path
       style="fill:none;stroke:#000000;stroke-width:2.14100957;stroke-linecap:butt;stroke-linejoin:miter;stroke-miterlimit:4;stroke-opacity:1;stroke-dasharray:none"
       d="m 385.17025,901.22114 c 31.24146,-29.2919 36.99647,-11.71675 36.99647,-11.71675"
       id="path3989"
       inkscape:connector-curvature="0"
       sodipodi:nodetypes="cc" />
    <path
       style="fill:none;stroke:#000000;stroke-width:2.14100957;stroke-linecap:butt;stroke-linejoin:miter;stroke-miterlimit:4;stroke-opacity:1;stroke-dasharray:none"
       d="m 410.65671,878.62456 c 32.0636,30.96573 48.50648,-6.69532 48.50648,-6.69532"
       id="path3991"
       inkscape:connector-curvature="0"
       sodipodi:nodetypes="cc" />
    <path
       style="fill:none;stroke:#000000;stroke-width:2.14100957;stroke-linecap:butt;stroke-linejoin:miter;stroke-miterlimit:4;stroke-opacity:1;stroke-dasharray:none"
       d="m 449.29746,882.80906 c 83.03653,81.18052 36.17434,118.84154 36.17434,118.84154"
       id="path3993"
       inkscape:connector-curvature="0"
       sodipodi:nodetypes="cc" />
    <path
       style="fill:none;stroke:#000000;stroke-width:2.14100957;stroke-linecap:butt;stroke-linejoin:miter;stroke-miterlimit:4;stroke-opacity:1;stroke-dasharray:none"
       d="m 456.69675,836.77892 c 116.74443,87.03887 116.74443,127.21066 116.74443,127.21066"
       id="path3995"
       inkscape:connector-curvature="0"
       sodipodi:nodetypes="cc" />
    <path
       sodipodi:type="arc"
       style="fill:#ffffff;fill-opacity:1;stroke:#000000;stroke-width:3;stroke-linecap:round;stroke-linejoin:round;stroke-miterlimit:4;stroke-opacity:1;stroke-dasharray:none;stroke-dashoffset:0"
       id="path3999"
       sodipodi:cx="195.26564"
       sodipodi:cy="891.96539"
       sodipodi:rx="4.6491818"
       sodipodi:ry="4.6491818"
       d="m 199.91482,891.96539 a 4.6491818,4.6491818 0 1 1 -9.29836,0 4.6491818,4.6491818 0 1 1 9.29836,0 z"
       transform="translate(227.80992,-37.193456)" />
    <path
       style="fill:none;stroke:#000000;stroke-width:1px;stroke-linecap:butt;stroke-linejoin:miter;stroke-opacity:1"
       d="m 500.94936,872.20638 c -16.27214,18.59673 2.32459,31.38198 2.32459,31.38198 0,0 -3.48689,-12.78525 11.62295,-1.1623 15.10985,11.62296 13.94755,0 13.94755,0"
       id="path4001"
       inkscape:connector-curvature="0"
       sodipodi:nodetypes="ccsc" />
    <path
       style="fill:none;stroke:#000000;stroke-width:1px;stroke-linecap:butt;stroke-linejoin:miter;stroke-opacity:1"
       d="m 495.13788,945.431 c 16.27214,9.29836 -6.97377,-27.89509 10.46066,-22.08362 17.43443,5.81148 -15.10984,32.54428 2.32459,34.86887 17.43443,2.32459 15.10984,58.11475 8.13607,43.00495 -6.97377,-15.10986 -20.92132,-12.78527 -20.92132,-12.78527"
       id="path4003"
       inkscape:connector-curvature="0"
       sodipodi:nodetypes="csssc" />
    <path
       style="fill:none;stroke:#000000;stroke-width:1px;stroke-linecap:butt;stroke-linejoin:miter;stroke-opacity:1"
       d="m 546.27888,986.11134 c 15.10984,-34.86887 -19.75902,-26.7328 -4.64918,-38.35575 15.10984,-11.62296 1.1623,10.46066 11.62296,12.78525 10.46066,2.32459 27.89509,34.86886 12.78525,30.21968 -15.10984,-4.64918 -12.78525,25.57048 -19.75903,15.10988 -6.97377,-10.4607 0,-19.75906 0,-19.75906 z"
       id="path4005"
       inkscape:connector-curvature="0"
       sodipodi:nodetypes="cssssc" />
    <path
       style="fill:none;stroke:#000000;stroke-width:2.5;stroke-linecap:butt;stroke-linejoin:miter;stroke-miterlimit:4;stroke-opacity:1;stroke-dasharray:none"
       d="m 385.82912,900.73284 c -7.50641,5.70487 -9.0096,5.2975 -13.81178,6.30539 -3.7164,0.77999 -6.26117,0.73084 -6.00513,-4.80411"
       id="path4009"
       inkscape:connector-curvature="0"
       sodipodi:nodetypes="csc" />
    <path
       style="fill:none;stroke:#000000;stroke-width:2.5;stroke-linecap:butt;stroke-linejoin:miter;stroke-miterlimit:4;stroke-opacity:1;stroke-dasharray:none"
       d="m 362.10889,901.93387 c 10.50896,2.10179 14.11204,-3.00256 14.11204,-3.00256 l 6.00512,-4.20359"
       id="path4011"
       inkscape:connector-curvature="0"
       sodipodi:nodetypes="ccc" />
    <flowRoot
       transform="translate(189.44336,-58.253366)"
       xml:space="preserve"
       id="flowRoot3952-3"
       style="font-size:40px;font-style:normal;font-weight:normal;line-height:125%;letter-spacing:0px;word-spacing:0px;fill:#ffffff;fill-opacity:1;stroke:#000000;stroke-width:5;stroke-linejoin:round;stroke-miterlimit:4;stroke-opacity:1;stroke-dasharray:none;font-family:Sans"><flowRegion
         id="flowRegion3954-8"><rect
           id="rect3956-7"
           width="240.59517"
           height="127.8525"
           x="439.34769"
           y="635.09808"
           style="fill:#ffffff;fill-opacity:1;stroke:#000000;stroke-width:5;stroke-linejoin:round;stroke-miterlimit:4;stroke-opacity:1;stroke-dasharray:none" /></flowRegion><flowPara
         id="flowPara3958-0"
         style="font-size:72px;font-weight:bold;fill:#ffffff;fill-opacity:1;stroke:#000000;stroke-width:5;stroke-linejoin:round;stroke-miterlimit:4;stroke-opacity:1;stroke-dasharray:none;-inkscape-font-specification:Sans Bold">+P</flowPara></flowRoot>    <path
       style="fill:none;stroke:#000000;stroke-width:9.10618687;stroke-linecap:butt;stroke-linejoin:miter;stroke-miterlimit:4;stroke-opacity:1;stroke-dasharray:none"
       d="m -372.94691,389.92865 24.28317,-10.62388 c 0,0 -4.55309,-13.65928 12.14158,-27.31856 16.69468,-13.65928 37.94245,7.58849 37.94245,7.58849 l 7.58849,13.65928 1.51769,18.21237 23.30866,-0.74625 c 12.46643,0.75466 47.6983,-13.66769 66.23552,-20.50152 0,0 -9.66079,7.03259 -13.65928,28.83626 -2.90609,15.84674 -13.65928,33.38935 -13.65928,33.38935 -16.22371,30.94031 -33.23085,43.63294 -47.13138,41.15818 -40.57471,-7.22361 -50.00129,-39.64048 -50.00129,-39.64048 0,0 -1.51769,-24.28316 -9.10618,-27.31856 -7.58849,-3.03539 -39.46015,-16.69468 -39.46015,-16.69468 z"
       id="path4596"
       inkscape:connector-curvature="0"
       sodipodi:nodetypes="ccscccccscscsc" />
    <path
       style="fill:none;stroke:#000000;stroke-width:9.10618687;stroke-linecap:butt;stroke-linejoin:miter;stroke-miterlimit:4;stroke-opacity:1;stroke-dasharray:none"
       d="m -286.43813,490.09671 40.97784,-1.5177"
       id="path4600"
       inkscape:connector-curvature="0" />
    <path
       style="fill:none;stroke:#000000;stroke-width:8.5788784;stroke-linecap:butt;stroke-linejoin:miter;stroke-miterlimit:4;stroke-opacity:1;stroke-dasharray:none"
       d="m -266.97171,468.58529 2.045,39.98745"
       id="path4602"
       inkscape:connector-curvature="0" />
    <path
       sodipodi:type="arc"
       style="fill:#ffffff;fill-opacity:1;stroke:#000000;stroke-width:2;stroke-linecap:round;stroke-linejoin:round;stroke-miterlimit:4;stroke-opacity:1;stroke-dasharray:none;stroke-dashoffset:0"
       id="path5114"
       sodipodi:cx="202"
       sodipodi:cy="364.36218"
       sodipodi:rx="1.5"
       sodipodi:ry="1.5"
       d="m 203.5,364.36218 a 1.5,1.5 0 1 1 -3,0 1.5,1.5 0 1 1 3,0 z"
       transform="matrix(1.8212374,0,0,1.8212374,-696.82363,-287.32067)" />
    <path
       style="fill:none;stroke:#000000;stroke-width:3.03539562px;stroke-linecap:butt;stroke-linejoin:miter;stroke-opacity:1"
       d="m -345.62835,379.30477 c 12.14159,16.69468 4.5531,24.28317 4.5531,24.28317"
       id="path5120"
       inkscape:connector-curvature="0" />
    <path
       style="fill:none;stroke:#000000;stroke-width:3.03539562px;stroke-linecap:butt;stroke-linejoin:miter;stroke-opacity:1"
       d="m -339.55755,391.44635 -27.31857,0"
       id="path5122"
       inkscape:connector-curvature="0" />
  </g>
</svg>
